<svg class="border shadow-md" viewBox="0 0 644.16 644.16" style="width: 644.16px; height: 644.16px;" xmlns="http://www.w3.org/2000/svg" preserveAspectRatio="none"><rect class="bg" id="bg" x="0" y="0" width="644.16" height="644.16" fill="#e9d0d0"/><g transform="rotate(0 322.08 322.08)"><path d="M -422.08 -34.42 S -221.04 -93.42&#10;            0.00 -34.42 194.08 -70.42&#10;            422.08 -34.42 520.16 -66.62&#10;            844.16 -34.42 1045.20 -66.62&#10;            1266.24 -34.42 h 110 V 844.16 H -422.08 Z" fill="#D6E5EF" id="-1"/><path d="M -422.08 30.00 S -221.04 -2.21&#10;            0.00 30.00 107.08 -7.00&#10;            422.08 30.00 623.12 -2.21&#10;            844.16 30.00 1045.20 -13.00&#10;            1266.24 30.00 h 110 V 844.16 H -422.08 Z" fill="#d3e0ee" id="0"/><path d="M -422.08 94.42 S -221.04 62.21&#10;            0.00 94.42 201.04 48.42&#10;            422.08 94.42 623.12 62.21&#10;            844.16 94.42 971.24 58.42&#10;            1266.24 94.42 h 110 V 844.16 H -422.08 Z" fill="#d0dbed" id="1"/><path d="M -422.08 158.83 S -221.04 126.62&#10;            0.00 158.83 201.04 126.62&#10;            422.08 158.83 450.16 126.62&#10;            844.16 158.83 1045.20 106.83&#10;            1266.24 158.83 h 110 V 844.16 H -422.08 Z" fill="#cdd6ec" id="2"/><path d="M -422.08 223.25 S -418.00 171.25&#10;            0.00 223.25 201.04 191.04&#10;            422.08 223.25 623.12 180.25&#10;            844.16 223.25 1045.20 191.04&#10;            1266.24 223.25 h 110 V 844.16 H -422.08 Z" fill="#cad1eb" id="3"/><path d="M -422.08 287.66 S -221.04 255.46&#10;            0.00 287.66 201.04 232.66&#10;            422.08 287.66 612.16 255.46&#10;            844.16 287.66 872.24 255.46&#10;            1266.24 287.66 h 110 V 844.16 H -422.08 Z" fill="#c7ccea" id="4"/><path d="M -422.08 352.08 S -330.00 319.87&#10;            0.00 352.08 201.04 289.08&#10;            422.08 352.08 623.12 289.08&#10;            844.16 352.08 1030.24 319.87&#10;            1266.24 352.08 h 110 V 844.16 H -422.08 Z" fill="#c4c7e9" id="5"/><path d="M -422.08 416.50 S -425.00 384.29&#10;            0.00 416.50 201.04 384.29&#10;            422.08 416.50 623.12 369.50&#10;            844.16 416.50 881.24 371.50&#10;            1266.24 416.50 h 110 V 844.16 H -422.08 Z" fill="#c1c2e8" id="6"/><path d="M -422.08 480.91 S -221.04 448.70&#10;            0.00 480.91 201.04 439.91&#10;            422.08 480.91 455.16 448.70&#10;            844.16 480.91 955.24 448.70&#10;            1266.24 480.91 h 110 V 844.16 H -422.08 Z" fill="#bebde7" id="7"/><path d="M -422.08 545.33 S -221.04 513.12&#10;            0.00 545.33 146.08 507.33&#10;            422.08 545.33 458.16 489.33&#10;            844.16 545.33 1045.20 489.33&#10;            1266.24 545.33 h 110 V 844.16 H -422.08 Z" fill="#bbb8e6" id="8"/><path d="M -422.08 609.74 S -221.04 577.54&#10;            0.00 609.74 201.04 552.74&#10;            422.08 609.74 623.12 577.54&#10;            844.16 609.74 1034.24 577.54&#10;            1266.24 609.74 h 110 V 844.16 H -422.08 Z" fill="#b8b3e5" id="9"/></g></svg>